<?xml version="1.0" standalone="no"?>
<!DOCTYPE svg PUBLIC "-//W3C//DTD SVG 20010904//EN"
 "http://www.w3.org/TR/2001/REC-SVG-20010904/DTD/svg10.dtd">
<svg version="1.0" xmlns="http://www.w3.org/2000/svg"
 width="1280.000000pt" height="854.000000pt" viewBox="0 0 1280.000000 854.000000"
 preserveAspectRatio="xMidYMid meet">
<metadata>
Created by potrace 1.15, written by Peter Selinger 2001-2017
</metadata>
<g transform="translate(0.000000,854.000000) scale(0.100000,-0.100000)"
fill="#000000" stroke="none">
<path d="M10855 8534 c-238 -36 -390 -96 -612 -241 -65 -43 -163 -103 -217
-133 -54 -30 -114 -69 -134 -86 -21 -16 -53 -36 -72 -44 -19 -7 -107 -47 -195
-88 -344 -160 -606 -253 -940 -336 -401 -99 -737 -141 -1264 -156 -398 -11
-573 -33 -771 -96 -174 -55 -302 -137 -402 -261 -166 -204 -440 -516 -604
-688 -181 -190 -593 -587 -754 -726 -162 -141 -634 -497 -800 -604 -58 -37
-125 -84 -149 -104 -73 -60 -159 -176 -216 -295 -67 -139 -105 -178 -322 -319
-287 -189 -809 -494 -1024 -600 -75 -37 -129 -70 -135 -82 -6 -13 -35 -28 -86
-45 -50 -16 -89 -36 -110 -57 -18 -18 -82 -54 -143 -81 -309 -138 -602 -349
-901 -647 -183 -182 -265 -279 -375 -444 -114 -169 -153 -255 -239 -526 -43
-134 -65 -175 -92 -175 -66 0 -205 -174 -269 -335 -34 -88 -33 -251 3 -390 41
-154 144 -444 175 -488 51 -74 199 -167 368 -230 228 -86 557 -156 965 -206
342 -42 448 -46 1175 -45 1014 1 1212 14 2260 145 703 88 1236 196 1999 405
357 98 438 123 499 155 121 63 472 286 652 414 48 34 197 172 370 344 512 507
753 732 1044 975 192 159 255 200 345 223 72 17 136 14 431 -23 186 -23 240
-16 425 49 85 30 170 59 188 65 19 7 67 32 108 57 41 25 102 54 136 66 104 35
387 185 558 296 90 59 315 233 509 394 220 183 437 427 519 584 l37 70 -1 215
c0 299 -30 539 -99 807 -69 265 -156 428 -248 462 -15 6 -32 23 -39 38 -7 18
-14 160 -19 378 -4 193 -12 409 -19 480 -46 512 -194 947 -441 1297 -174 245
-402 495 -474 518 -22 7 -75 27 -117 46 -120 52 -181 65 -323 69 -71 2 -143 1
-160 -1z m792 -407 c207 -166 411 -527 533 -942 113 -386 158 -805 131 -1211
-22 -346 -72 -517 -208 -723 -68 -102 -275 -314 -443 -452 -447 -369 -563
-452 -870 -620 -107 -59 -249 -138 -314 -175 -196 -113 -731 -475 -843 -569
-36 -31 -77 -62 -89 -67 -29 -14 -54 -4 -54 21 0 23 -69 117 -110 149 -17 13
-37 21 -46 18 -13 -5 -13 -10 1 -42 8 -20 38 -67 65 -104 61 -83 64 -105 13
-119 -82 -23 -103 -8 -103 71 0 80 -72 150 -121 119 -34 -21 -64 -11 -134 46
-79 63 -119 83 -169 83 -47 0 -144 37 -159 61 -26 41 -80 12 -102 -54 -15 -47
-43 -46 -99 2 -26 23 -57 42 -69 42 -74 4 -107 -18 -107 -70 l0 -38 -65 -11
c-35 -7 -72 -15 -82 -18 -11 -3 -6 5 12 20 24 21 28 29 19 43 -15 24 -80 56
-101 49 -10 -3 -31 -32 -48 -63 -32 -61 -81 -103 -122 -103 -21 0 -24 4 -21
33 3 29 1 32 -29 35 -33 3 -100 -25 -123 -53 -7 -9 -16 -32 -19 -52 -8 -50
-46 -76 -120 -81 -44 -3 -65 0 -84 13 -23 15 -33 16 -77 5 -59 -14 -115 -60
-106 -88 8 -24 -35 -65 -96 -92 -39 -17 -59 -19 -110 -14 -55 5 -67 3 -89 -15
-15 -12 -29 -35 -33 -54 -3 -19 -17 -44 -30 -56 -26 -25 -115 -61 -149 -61
-13 0 -48 -7 -77 -16 -71 -21 -120 -69 -120 -116 0 -63 -68 -103 -154 -93 -48
6 -53 4 -80 -24 -34 -35 -86 -56 -122 -47 -19 5 -24 13 -24 40 0 64 -66 116
-148 116 -47 0 -54 7 -82 83 -35 93 -90 145 -103 97 -3 -11 -10 -20 -16 -20
-16 0 -41 55 -41 89 0 37 -24 55 -99 70 -63 13 -81 25 -81 55 0 43 -24 69 -75
85 -48 15 -51 18 -71 76 -30 85 -62 115 -124 115 l-49 0 2 49 c2 40 -3 54 -22
75 -25 26 -74 35 -86 16 -3 -5 -15 -14 -25 -20 -18 -10 -19 -7 -13 40 5 46 3
54 -33 106 -36 52 -39 63 -43 136 -3 78 -4 80 -32 90 -42 15 -53 41 -34 81 13
29 59 67 80 67 4 0 4 -16 1 -35 -13 -67 51 -48 90 27 22 43 18 58 -15 58 -17
0 -32 4 -35 8 -8 13 46 123 58 119 25 -8 113 -156 135 -224 42 -136 112 -169
228 -110 49 26 119 111 132 161 16 63 14 181 -4 251 -18 70 -66 177 -99 220
-55 72 -72 135 -37 135 10 0 24 -7 31 -15 16 -20 45 -19 65 1 12 12 16 30 13
63 -3 44 -2 46 26 49 45 5 73 -6 117 -45 39 -35 40 -38 34 -84 -6 -44 -4 -50
30 -88 62 -68 134 -76 222 -25 60 35 94 97 101 184 6 90 -9 148 -65 244 -71
124 -107 257 -89 329 9 36 33 41 48 10 18 -37 33 -39 63 -9 32 32 32 66 -1
105 l-26 31 42 0 c57 0 88 -34 165 -179 104 -197 155 -226 265 -152 61 41 90
92 90 161 -1 71 -28 138 -113 270 -37 58 -70 115 -74 128 -4 16 4 36 26 68 36
49 34 64 -10 64 -31 0 -37 16 -19 51 13 23 37 24 64 4 11 -8 34 -15 51 -15 19
0 39 -8 49 -19 10 -11 42 -90 73 -176 74 -215 103 -257 148 -215 17 16 35 20
86 20 80 0 90 9 148 128 l40 84 -56 86 c-164 253 -213 345 -213 402 0 39 -6
50 -35 66 -11 6 -22 19 -24 29 -3 16 3 17 67 12 64 -6 72 -5 85 13 14 21 15
20 51 -22 51 -59 106 -173 115 -239 8 -59 21 -88 58 -133 14 -17 22 -37 20
-48 -7 -26 8 -22 66 16 87 58 173 138 226 208 l50 66 -68 57 c-80 65 -119 112
-132 160 -5 19 -27 51 -49 71 -22 21 -44 50 -49 66 -29 83 127 110 300 53 26
-9 85 -39 131 -67 315 -191 613 -268 1038 -268 982 1 2015 481 2459 1143 69
102 166 305 186 387 9 40 18 140 22 257 l6 193 36 -27 c20 -14 64 -49 98 -76z
m-4699 -862 c43 -9 114 -34 162 -57 68 -33 102 -58 171 -127 122 -123 173
-240 139 -321 -38 -91 -160 -78 -349 39 -183 113 -387 197 -536 219 -93 14
-136 5 -154 -33 -8 -17 -50 -75 -94 -130 -44 -55 -104 -136 -132 -180 -59 -91
-71 -103 -111 -111 -22 -4 -34 0 -47 14 -18 19 -18 22 2 60 44 87 268 370 377
478 138 136 354 192 572 149z m-363 -560 c91 -23 178 -70 223 -119 64 -69 67
-117 13 -178 -39 -43 -78 -40 -204 18 -213 97 -278 124 -319 130 -51 8 -88 29
-88 50 0 47 61 101 130 115 49 11 173 3 245 -16z m-864 -439 c-42 -68 -158
-156 -205 -156 -8 0 -22 -13 -31 -30 -9 -16 -22 -30 -31 -30 -27 0 12 56 99
144 118 118 224 163 168 72z m524 -31 c86 -20 157 -49 228 -92 47 -28 57 -39
57 -62 0 -34 -87 -145 -117 -149 -11 -2 -79 26 -149 62 -149 75 -269 118 -427
150 l-112 23 75 36 c41 20 100 41 130 46 71 13 230 5 315 -14z m-835 -256 c0
-33 -47 -118 -97 -176 -24 -29 -95 -91 -158 -138 -62 -46 -130 -105 -151 -131
-90 -109 -156 -172 -274 -264 -70 -54 -141 -115 -160 -136 -18 -22 -60 -57
-93 -80 -159 -111 -200 -324 -61 -324 43 0 343 -47 424 -66 100 -24 220 -86
268 -137 75 -83 75 -170 -1 -274 -75 -104 -111 -211 -101 -304 3 -24 24 -100
47 -169 l41 -125 182 -181 c100 -100 215 -207 255 -239 41 -32 115 -97 164
-145 50 -48 115 -103 146 -123 39 -25 61 -47 73 -74 28 -63 31 -66 77 -91 24
-14 75 -47 112 -75 86 -63 177 -97 282 -104 173 -12 305 34 407 142 35 37 99
89 142 117 226 145 771 394 1103 504 257 85 475 116 677 95 297 -30 489 -140
519 -298 6 -29 1 -36 -56 -88 -34 -31 -168 -143 -297 -248 -255 -207 -592
-491 -844 -710 -190 -164 -284 -239 -431 -339 -346 -237 -719 -394 -1129 -473
-72 -14 -171 -37 -221 -50 -240 -65 -866 -170 -1255 -210 -85 -9 -203 -22
-262 -30 -81 -11 -114 -12 -140 -3 -70 23 -138 95 -138 145 0 25 -57 99 -284
368 -392 466 -539 609 -884 858 -318 230 -1112 667 -1211 667 -15 0 -64 9
-107 19 -44 11 -124 29 -178 41 -95 22 -146 49 -146 79 0 43 137 134 336 223
67 30 166 84 220 119 55 36 146 88 204 116 235 114 901 533 1627 1022 93 63
191 111 226 111 l32 1 -37 34 c-60 56 -127 47 -208 -28 -37 -35 -178 -141
-227 -170 -16 -10 20 104 47 147 38 62 85 98 511 395 229 159 356 261 645 516
256 226 352 305 372 305 6 0 12 -9 12 -21z m382 -203 c212 -41 360 -125 343
-196 -9 -37 -82 -156 -123 -202 -33 -37 -37 -38 -49 -22 -7 10 -16 15 -19 11
-10 -9 -75 26 -178 98 -116 80 -156 100 -252 125 -44 11 -112 32 -152 46 l-74
27 44 44 c51 53 85 72 147 84 59 10 219 3 313 -15z m-672 -441 c313 -66 496
-149 547 -248 37 -72 -11 -185 -106 -252 -34 -24 -51 -29 -96 -29 -47 1 -76
13 -232 91 -125 63 -226 105 -338 141 -88 28 -175 61 -193 72 -34 21 -35 40
-2 40 19 0 118 75 218 164 29 25 59 46 67 46 8 0 69 -11 135 -25z m-3515
-2272 c11 -10 15 -26 12 -43 -9 -44 5 -54 82 -58 70 -4 71 -4 71 21 0 36 23
51 68 44 43 -7 72 -38 72 -77 0 -15 8 -34 19 -44 20 -18 131 -40 143 -28 4 4
-4 24 -19 45 -14 20 -24 39 -21 42 5 5 122 -33 171 -56 34 -15 30 -33 -9 -37
-42 -5 -51 -18 -28 -43 41 -46 174 -90 174 -57 0 7 -12 29 -26 50 -15 21 -24
41 -20 45 20 20 276 -100 516 -242 238 -141 511 -333 564 -396 36 -43 23 -54
-44 -40 -29 6 -55 10 -57 7 -6 -6 98 -91 134 -110 46 -23 53 -21 47 14 -4 18
-1 36 6 45 17 21 30 19 30 -5 0 -12 21 -43 46 -70 l46 -49 -29 2 c-23 2 -28
-2 -31 -24 -3 -30 30 -67 97 -111 70 -44 89 -32 56 32 -9 18 -11 30 -5 30 29
0 276 -256 286 -296 4 -15 -2 -36 -16 -58 -20 -33 -20 -37 -6 -65 20 -37 96
-103 116 -99 8 2 16 14 18 28 6 49 11 54 32 35 23 -20 64 -89 75 -123 5 -16 1
-29 -10 -42 -12 -13 -15 -28 -11 -44 9 -35 104 -174 132 -192 26 -18 44 -11
44 16 0 34 18 31 49 -7 39 -47 43 -99 8 -112 -12 -5 -91 -12 -175 -16 l-152
-8 0 35 c0 24 -8 42 -26 59 -26 24 -31 25 -153 18 -49 -3 -101 54 -101 110 0
35 -3 40 -32 50 -20 7 -131 112 -312 295 -347 350 -509 487 -853 720 -324 219
-658 396 -750 396 -24 0 -42 24 -28 38 4 4 46 7 93 7 68 0 87 3 87 14 0 24
-48 51 -101 57 -45 6 -53 3 -84 -22 -31 -26 -41 -29 -110 -29 -60 1 -86 6
-125 25 -29 15 -51 33 -53 44 -4 17 1 18 42 12 44 -7 46 -6 46 18 0 34 -29 62
-77 75 -87 24 -111 9 -78 -49 25 -44 20 -53 -28 -47 -66 9 -208 57 -202 68 4
5 22 9 41 9 20 0 45 5 56 11 17 9 19 17 14 51 -9 54 5 68 66 68 61 0 109 19
131 54 20 30 57 35 82 9z m-350 -344 c510 -116 842 -258 1265 -539 271 -180
315 -212 475 -345 256 -213 468 -430 578 -590 33 -49 92 -122 129 -162 37 -40
68 -79 68 -87 0 -24 -38 -53 -87 -65 -168 -43 -1184 -70 -1568 -42 -399 29
-637 65 -965 145 -263 65 -431 132 -509 202 -167 150 -200 498 -80 841 61 173
102 237 358 552 93 115 118 140 135 136 11 -3 102 -23 201 -46z"/>
<path d="M11533 6903 c-23 -55 -30 -343 -10 -441 8 -41 10 -75 5 -78 -5 -3
-26 -3 -48 1 -37 6 -40 5 -47 -22 -10 -36 -10 -443 1 -506 10 -63 30 -71 67
-26 15 19 29 32 32 29 2 -3 -2 -50 -9 -105 -8 -55 -20 -179 -28 -275 -9 -96
-22 -197 -31 -225 -19 -62 -19 -75 -1 -75 41 0 172 252 240 460 72 223 90 333
91 555 0 142 -4 212 -18 276 -20 98 -67 247 -107 334 -29 66 -84 135 -107 135
-8 0 -21 -17 -30 -37z"/>
<path d="M5270 3960 c0 -53 72 -79 88 -32 5 17 -44 62 -68 62 -16 0 -20 -6
-20 -30z"/>
<path d="M5430 3815 c-19 -22 -4 -64 25 -71 55 -14 74 25 32 64 -27 26 -40 27
-57 7z"/>
<path d="M8318 3789 c-31 -12 -37 -33 -12 -43 53 -20 177 3 172 33 -3 13 -17
16 -68 18 -36 1 -77 -3 -92 -8z"/>
<path d="M8703 3790 c-33 -13 -28 -36 8 -49 43 -15 142 -14 157 1 19 19 14 45
-10 52 -34 9 -130 6 -155 -4z"/>
<path d="M7977 3746 c-75 -21 -110 -63 -68 -85 19 -11 109 7 154 30 99 51 40
89 -86 55z"/>
<path d="M9043 3724 c-10 -26 46 -73 112 -93 53 -17 62 -18 75 -4 13 13 11 18
-20 44 -31 26 -125 69 -151 69 -5 0 -12 -7 -16 -16z"/>
<path d="M7633 3620 c-28 -17 -53 -47 -53 -64 0 -12 52 -6 80 9 27 14 60 51
60 67 0 15 -55 8 -87 -12z"/>
<path d="M5684 3556 c-3 -8 0 -24 6 -36 14 -25 63 -25 68 1 7 36 -61 68 -74
35z"/>
<path d="M7344 3450 c-58 -28 -114 -73 -114 -91 0 -5 14 -9 30 -9 57 0 180 76
180 111 0 27 -24 24 -96 -11z"/>
<path d="M5868 3399 c-10 -5 -18 -19 -18 -29 0 -23 44 -55 65 -46 21 8 19 49
-3 69 -21 20 -21 20 -44 6z"/>
<path d="M7011 3248 c-48 -13 -81 -37 -81 -58 0 -44 87 -27 128 25 34 43 20
53 -47 33z"/>
<path d="M6006 3241 c-10 -15 12 -59 34 -71 29 -16 50 -6 50 24 0 38 -67 75
-84 47z"/>
<path d="M6746 3085 c-22 -7 -48 -23 -60 -34 -19 -19 -19 -22 -4 -37 22 -23
70 -10 108 28 49 49 28 69 -44 43z"/>
<path d="M6213 3059 c-29 -11 -29 -40 0 -67 28 -26 75 -29 84 -5 8 21 -16 64
-42 73 -11 4 -30 4 -42 -1z"/>
<path d="M6440 2938 c-19 -5 -41 -15 -49 -23 -11 -11 -10 -16 9 -35 18 -18 30
-21 62 -17 65 9 120 57 87 78 -18 11 -64 10 -109 -3z"/>
<path d="M7055 2046 c-38 -13 -165 -60 -282 -104 -245 -94 -302 -111 -593
-185 -294 -75 -459 -110 -711 -152 -222 -37 -299 -57 -299 -80 0 -26 51 -74
85 -81 18 -3 91 2 162 11 105 15 170 17 359 12 247 -7 358 1 489 34 118 30
181 63 211 110 14 22 35 44 47 48 12 5 38 15 57 22 19 8 49 28 65 46 17 18 91
65 165 104 248 130 352 201 335 228 -8 14 -8 14 -90 -13z"/>
<path d="M2473 2714 c-3 -8 4 -26 18 -40 46 -49 118 -13 73 37 -21 24 -82 26
-91 3z"/>
<path d="M2140 2615 c-11 -13 -9 -19 10 -40 22 -24 97 -55 132 -55 24 0 34 26
17 46 -16 20 -75 50 -115 58 -22 5 -35 2 -44 -9z"/>
<path d="M2713 2585 c-11 -31 78 -94 133 -95 31 0 48 24 35 48 -24 46 -154 82
-168 47z"/>
<path d="M2486 2447 c-22 -16 -13 -39 30 -72 40 -30 132 -75 155 -75 52 0 13
67 -69 118 -58 37 -93 45 -116 29z"/>
<path d="M3020 2398 c0 -34 115 -128 157 -128 58 0 30 56 -56 111 -46 30 -101
39 -101 17z"/>
<path d="M2829 2209 c-18 -11 99 -127 154 -153 40 -19 67 -10 67 21 0 48 -182
156 -221 132z"/>
<path d="M3180 1916 c0 -44 103 -117 138 -97 14 8 10 16 -34 60 -36 36 -59 51
-78 51 -16 0 -26 -6 -26 -14z"/>
<path d="M3770 1747 c0 -23 49 -85 84 -107 70 -43 78 13 11 77 -44 42 -95 58
-95 30z"/>
<path d="M3451 1677 c-16 -20 31 -89 108 -159 65 -61 91 -71 91 -38 0 53 -89
172 -147 197 -40 16 -38 16 -52 0z"/>
<path d="M3730 1385 c-18 -21 -4 -67 36 -113 18 -22 34 -50 34 -61 0 -27 30
-28 61 -2 24 19 24 20 6 54 -21 39 -104 137 -117 137 -4 0 -13 -7 -20 -15z"/>
<path d="M817 1863 c-20 -19 -3 -71 53 -160 72 -114 106 -200 91 -225 -8 -14
0 -26 48 -70 131 -121 242 -177 371 -185 60 -4 90 -2 90 4 0 17 -58 64 -138
112 -39 24 -72 46 -72 48 0 9 140 -7 242 -28 106 -21 138 -23 138 -10 0 16
-68 69 -137 106 -216 118 -273 151 -317 186 -27 21 -66 43 -86 49 -27 7 -51
25 -80 60 -25 30 -50 50 -62 50 -11 0 -38 16 -59 35 -37 33 -67 43 -82 28z"/>
</g>
</svg>
